PathFileType	4	(X/Y/Z)	C:/Users/beibeiliu/ov580/test_trc/capture2\sequence.19_training_dense_left.trc
DataRate	CameraRate	NumFrames	NumMarkers	Units	OrigDataRate	OrigDataStartFrame	OrigNumFrames
120	120	8	19	mm	120	264	351
Frame#	Time	ThumbCMC			ThumbMCP			ThumbIP			ThumbTip			IndexMCP			IndexPIP			IndexTip			MiddleMCP			MiddlePIP			MiddleTip			RingMCP			RingPIP			RingTip			PinkyMCP			PinkyPIP			PinkyTip			BackHand1			BackHand2			BackHand3	
		X0	Y0	Z0	X1	Y1	Z1	X2	Y2	Z2	X3	Y3	Z3	X4	Y4	Z4	X5	Y5	Z5	X6	Y6	Z6	X7	Y7	Z7	X8	Y8	Z8	X9	Y9	Z9	X10	Y10	Z10	X11	Y11	Z11	X12	Y12	Z12	X13	Y13	Z13	X14	Y14	Z14	X15	Y15	Z15	X16	Y16	Z16	X17	Y17	Z17	X18	Y18	Z18	
263	2.19167	-144.036	85.3988	12.1998	-112.573	85.9007	-1.27483	-91.7696	88.004	-16.9999	-76.4652	84.4203	-34.4431	-142.848	76.7037	-65.6359	-123.402	70.8769	-88.7153	-100.04	61.5374	-97.6071	-147.702	54.1624	-70.0099	-122.542	45.9179	-92.1094	-87.5284	37.1285	-89.264	-149.337	36.8323	-66.4427	-126.739	25.912	-83.5704	-94.503	27.0063	-79.8748	-152.888	17.4984	-53.6786	-130.179	14.2235	-73.2386	-102.02	12.7206	-77.6768	-178.423	37.1541	-22.1486	-190.128	38.7168	7.54298	-175.553	71.8442	-10.1267	
264	2.2	-143.185	88.8957	10.3431	-112.986	88.8375	2.191	-87.5985	92.2272	-18.4227	-73.0702	89.3825	-32.1342	-141.943	83.5494	-66.5837	-124.063	83.6244	-86.9551	-99.9322	69.8377	-98.4738	-146.424	62.175	-75.7599	-122.12	58.2248	-93.0861	-89.9649	48.114	-91.6456	-150.917	44.6818	-67.9343	-125.296	39.057	-86.5928	-95.8739	34.8688	-81.389	-153.933	26.4002	-60.2308	-135.035	21.9624	-75.9789	-107.515	21.7104	-78.4428	-177.465	51.4975	-24.0604	-188.801	50.2218	2.40384	-176.843	80.6253	-8.66727	
265	2.20833	-137.084	97.6057	6.2641	-110.384	91.7495	-0.122283	-86.3967	96.5157	-14.6659	-71.501	90.9979	-33.5917	-139.815	93.4342	-63.87	-117.954	89.4886	-90.0781	-97.7853	76.2099	-98.1318	-145.707	75.4407	-73.8862	-124.974	64.7154	-94.2714	-91.0566	52.5434	-93.2261	-148.974	57.27	-73.0485	-126.219	44.279	-89.2308	-98.0347	39.6783	-83.9911	-156.594	37.2313	-61.354	-132.372	31.1688	-79.3982	-105.1	27.5522	-79.8696	-180.911	61.113	-25.8913	-190.615	61.3968	-1.68672	-173.416	92.862	-10.6398	
266	2.21667	-133.475	101.267	6.39841	-106.602	93.5952	-2.89259	-83.5627	95.7422	-15.6152	-68.0138	90.2144	-34.7252	-136.024	100.897	-64.9653	-117.099	98.5564	-88.2863	-94.4807	83.4229	-98.5012	-145.293	81.7176	-76.0916	-122.048	72.9604	-96.5586	-88.9278	55.9237	-94.991	-149.787	66.4756	-73.527	-127.562	53.3909	-90.855	-94.584	40.893	-85.0093	-156.372	47.6459	-66.0684	-135.003	37.3611	-82.8917	-107.464	33.9347	-82.6738	-179.109	72.6225	-30.7874	-190.125	68.049	-1.24194	-169.949	99.6661	-9.76586	
267	2.225	-129.681	102.946	8.33892	-100.434	94.9494	-0.961949	-81.4371	91.2432	-13.906	-62.1157	87.6088	-33.1821	-130.05	108.891	-64.0736	-108.67	101.394	-89.2074	-88.5742	81.0063	-99.1523	-139.087	91.1574	-78.9079	-119.958	80.6383	-96.5051	-89.1846	61.9188	-97.1567	-150.476	71.9619	-74.2586	-124.509	60.4113	-93.3029	-99.7684	45.7999	-88.72	-157.128	57.6464	-66.1295	-137.551	46.6207	-84.0891	-110.821	36.7238	-85.3976	-179.806	78.147	-31.563	-189.647	76.8586	-1.13342	-165.836	104.495	-9.3271	
268	2.23333	-126.39	104.573	10.8483	-100.589	91.6302	-1.41539	-74.2296	90.4289	-15.6785	-61.8459	83.2856	-30.6024	-120.883	114.467	-66.0197	-106.996	107.376	-86.6846	-84.8889	83.5629	-99.0895	-136.306	96.4726	-77.8096	-114.572	82.4405	-98.6502	-91.4868	65.0842	-98.9996	-147.817	78.3871	-76.5546	-125.255	67.4622	-93.5463	-102.386	50.5586	-90.3763	-159.714	61.7911	-69.9326	-138.622	53.8294	-85.5945	-110.151	40.1775	-83.7661	-177.414	87.1515	-31.578	-187.361	86.8972	-0.989618	-161.985	110.115	-12.9009	
269	2.24167	-122.316	106.391	14.0864	-94.6085	92.4167	0.27352	-75.0941	87.657	-13.7633	-57.147	80.153	-34.2097	-118.793	116.43	-61.7345	-103.479	108.271	-87.1579	-83.1448	88.5294	-97.4704	-135.029	100.988	-74.4676	-115.673	90.2354	-96.8374	-91.2594	66.6729	-99.9411	-142.273	88.32	-77.3634	-121.79	72.1341	-95.9498	-99.3694	49.0527	-92.4877	-159.517	70.0083	-67.8554	-139.828	58.7037	-87.2331	-116.164	43.609	-87.8563	-173.123	93.0103	-29.7448	-183.694	96.8789	-2.49941	-155.325	116.218	-6.40989	
270	2.25	-123.617	104.616	11.17	-93.0933	90.9029	-0.15766	-71.8654	85.3327	-13.896	-57.8658	78.1453	-30.8396	-115.271	120.025	-62.3955	-100.86	109.523	-86.4736	-82.6349	90.3243	-97.5839	-127.398	107.968	-76.5876	-111.984	94.6796	-97.0169	-86.7417	66.8714	-98.7877	-141.54	93.3915	-76.1932	-126.641	77.4271	-97.152	-98.1274	55.1165	-93.8947	-158.729	76.1701	-67.7467	-141.193	67.4958	-87.226	-113.678	45.8775	-90.0788	-171.087	98.9692	-30.7985	-181.719	98.8141	-2.81915	-154.37	120.08	-8.11545	
